<?xml version="1.0" encoding="UTF-8"?><svg id="Layer_2" xmlns="http://www.w3.org/2000/svg" viewBox="0 0 314.89 192.19"><defs><style>.cls-1{fill:#3192d0;}.cls-2{fill:#6cccd3;}.cls-3{fill:#00102d;}.cls-4{fill:#ae538e;}</style></defs><g id="Layer_1-2"><g><path class="cls-1" d="M102.29,191.74c-1.04,0-1.92-.81-1.99-1.87-.07-1.1,.76-2.06,1.86-2.13,48.11-3.19,85.79-43.5,85.79-91.77,0-14.66-3.35-28.67-9.95-41.65-.5-.98-.11-2.19,.88-2.69,.99-.5,2.19-.11,2.69,.88,6.89,13.54,10.38,28.16,10.38,43.46,0,50.37-39.33,92.43-89.53,95.76-.05,0-.09,0-.13,0Z"/><path class="cls-1" d="M16.56,47.7c-.37,0-.74-.1-1.07-.31-.93-.59-1.21-1.83-.62-2.76C32.6,16.68,62.92,0,95.98,0c31.07,0,60.36,15.15,78.35,40.53,.64,.9,.43,2.15-.48,2.79-.9,.64-2.15,.43-2.79-.48C153.82,18.52,125.75,4,95.98,4c-31.68,0-60.73,15.99-77.72,42.77-.38,.6-1.03,.93-1.69,.93Z"/><path class="cls-4" d="M89.1,191.7s-.1,0-.15,0c-24.13-1.75-46.55-12.48-63.12-30.22C9.17,143.65,0,120.39,0,95.98c0-14.02,2.96-27.53,8.78-40.17,.46-1,1.65-1.44,2.65-.98s1.44,1.65,.98,2.65c-5.58,12.1-8.42,25.05-8.42,38.49,0,47.98,37.44,88.27,85.24,91.73,1.1,.08,1.93,1.04,1.85,2.14-.08,1.05-.95,1.86-1.99,1.86Z"/><path class="cls-1" d="M96.12,171.11c-24.62,0-48.7-12.03-63.05-33.86-.61-.92-.35-2.16,.57-2.77,.93-.6,2.16-.35,2.77,.57,20.53,31.25,62.13,41.28,94.71,22.84,9.9-5.6,18.07-13.21,24.3-22.62,.61-.92,1.85-1.17,2.77-.56,.92,.61,1.17,1.85,.56,2.77-6.58,9.94-15.22,17.98-25.67,23.89-11.64,6.59-24.38,9.74-36.97,9.74Z"/><path class="cls-3" d="M162.33,129.05c-.29,0-.57-.06-.85-.19-1-.47-1.43-1.66-.96-2.66,9.83-20.93,8.9-45.42-2.47-65.51-12.1-21.38-33.99-34.88-58.56-36.11-1.1-.05-1.95-.99-1.9-2.1,.06-1.1,1.02-1.96,2.1-1.9,25.94,1.3,49.06,15.56,61.84,38.13,12.01,21.22,12.99,47.08,2.61,69.18-.34,.73-1.06,1.15-1.81,1.15Z"/><path class="cls-1" d="M29.69,129.18c-.75,0-1.47-.42-1.81-1.14-16.82-35.46-3.21-78.41,30.98-97.76,9.57-5.42,19.95-8.63,30.83-9.53,1.1-.1,2.07,.73,2.16,1.83s-.73,2.07-1.83,2.16c-10.3,.86-20.12,3.89-29.19,9.02C28.46,52.09,15.57,92.75,31.5,126.32c.47,1,.05,2.19-.95,2.66-.28,.13-.57,.19-.86,.19Z"/><path class="cls-2" d="M312.35,54.01s-.07,0-.11,0c-1.38-.06-2.45-1.23-2.39-2.61,.03-.64,.04-1.27,.04-1.92,0-24.41-19.85-44.26-44.26-44.26-17.04,0-32.28,9.51-39.78,24.83-.61,1.24-2.1,1.75-3.34,1.15-1.24-.61-1.75-2.1-1.15-3.34C229.71,10.81,246.67,.22,265.63,.22c27.16,0,49.26,22.1,49.26,49.26,0,.72-.01,1.43-.04,2.14-.06,1.34-1.17,2.39-2.5,2.39Z"/><path class="cls-1" d="M299.25,53.3s-.05,0-.08,0c-1.1-.04-1.96-.98-1.92-2.08,.02-.45,.03-.9,.03-1.35,0-17.17-13.97-31.14-31.14-31.14-11.99,0-22.71,6.69-27.98,17.46-.48,.99-1.68,1.4-2.67,.92-.99-.49-1.4-1.68-.92-2.67,5.95-12.16,18.05-19.71,31.58-19.71,19.38,0,35.14,15.76,35.14,35.14,0,.51-.01,1.01-.03,1.52-.04,1.08-.93,1.92-2,1.92Z"/><path class="cls-3" d="M265.2,179.36c-19.37,0-35.14-15.76-35.14-35.14,0-.51,.01-1.02,.03-1.52,.05-1.1,.98-1.93,2.08-1.91,1.1,.05,1.96,.98,1.91,2.08-.02,.45-.03,.9-.03,1.35,0,17.17,13.97,31.14,31.14,31.14,11.99,0,22.71-6.69,27.98-17.46,.49-.99,1.68-1.4,2.68-.92,.99,.49,1.4,1.68,.92,2.68-5.95,12.15-18.05,19.71-31.58,19.71Z"/><path class="cls-4" d="M307.96,161.22c-1.24-.61-2.74-.09-3.34,1.15-7.5,15.31-22.74,24.83-39.78,24.83-24.41,0-44.26-19.85-44.26-44.26,0-.64,.01-1.29,.04-1.92,.06-1.38-1.01-2.54-2.39-2.6-1.37-.05-2.55,1.01-2.6,2.39-.03,.71-.04,1.42-.04,2.13,0,27.16,22.1,49.26,49.26,49.26,18.96,0,35.92-10.59,44.27-27.63,.61-1.24,.09-2.74-1.15-3.34Z"/><path class="cls-1" d="M313.36,132.98c0-.18-.02-.35-.06-.53-.07-.31-.16-.62-.24-.93-4.27-19.98-23.05-36.49-44.64-37.72-.22-.01-.44,.01-.65,.06-.72-.04-1.43-.06-2.15-.07v-.05c-17.41,0-33.74-10.74-40.65-26.71-1.98-4.57-3.16-9.42-3.5-14.41-.1-1.38-1.28-2.4-2.67-2.32-1.38,.1-2.42,1.29-2.32,2.67,.39,5.55,1.7,10.95,3.9,16.04,7.63,17.63,25.59,29.53,44.79,29.72v.05c4.58,0,9.09,.69,13.4,2.06,14.54,4.61,26.08,17.09,29.64,31.9,.46,2.25,.73,4.56,.76,6.89,.02,1.37,1.13,2.47,2.5,2.47h.03c1.38-.02,2.49-1.15,2.47-2.53-.02-2.23-.24-4.44-.62-6.61Z"/></g></g></svg>